<svg width="93" height="11" viewBox="0 0 93 11" fill="none" xmlns="http://www.w3.org/2000/svg">
<path d="M0.602 5.114C0.602 4.162 0.816667 3.308 1.246 2.552C1.67533 1.78667 2.25867 1.18933 2.996 0.76C3.74267 0.330666 4.56867 0.116 5.474 0.116C6.538 0.116 7.46667 0.372666 8.26 0.886C9.05333 1.39933 9.632 2.12733 9.996 3.07H8.47C8.19933 2.482 7.80733 2.02933 7.294 1.712C6.79 1.39467 6.18333 1.236 5.474 1.236C4.79267 1.236 4.18133 1.39467 3.64 1.712C3.09867 2.02933 2.674 2.482 2.366 3.07C2.058 3.64867 1.904 4.33 1.904 5.114C1.904 5.88867 2.058 6.57 2.366 7.158C2.674 7.73667 3.09867 8.18467 3.64 8.502C4.18133 8.81933 4.79267 8.978 5.474 8.978C6.18333 8.978 6.79 8.824 7.294 8.516C7.80733 8.19867 8.19933 7.746 8.47 7.158H9.996C9.632 8.09133 9.05333 8.81467 8.26 9.328C7.46667 9.832 6.538 10.084 5.474 10.084C4.56867 10.084 3.74267 9.874 2.996 9.454C2.25867 9.02467 1.67533 8.432 1.246 7.676C0.816667 6.92 0.602 6.066 0.602 5.114ZM16.3165 10.098C15.4111 10.098 14.5851 9.888 13.8385 9.468C13.0918 9.03867 12.4991 8.446 12.0605 7.69C11.6311 6.92467 11.4165 6.066 11.4165 5.114C11.4165 4.162 11.6311 3.308 12.0605 2.552C12.4991 1.78667 13.0918 1.194 13.8385 0.773999C14.5851 0.344666 15.4111 0.129999 16.3165 0.129999C17.2311 0.129999 18.0618 0.344666 18.8085 0.773999C19.5551 1.194 20.1431 1.782 20.5725 2.538C21.0018 3.294 21.2165 4.15267 21.2165 5.114C21.2165 6.07533 21.0018 6.934 20.5725 7.69C20.1431 8.446 19.5551 9.03867 18.8085 9.468C18.0618 9.888 17.2311 10.098 16.3165 10.098ZM16.3165 8.992C16.9978 8.992 17.6091 8.83333 18.1505 8.516C18.7011 8.19867 19.1305 7.746 19.4385 7.158C19.7558 6.57 19.9145 5.88867 19.9145 5.114C19.9145 4.33 19.7558 3.64867 19.4385 3.07C19.1305 2.482 18.7058 2.02933 18.1645 1.712C17.6231 1.39467 17.0071 1.236 16.3165 1.236C15.6258 1.236 15.0098 1.39467 14.4685 1.712C13.9271 2.02933 13.4978 2.482 13.1805 3.07C12.8725 3.64867 12.7185 4.33 12.7185 5.114C12.7185 5.88867 12.8725 6.57 13.1805 7.158C13.4978 7.746 13.9271 8.19867 14.4685 8.516C15.0191 8.83333 15.6351 8.992 16.3165 8.992ZM32.7963 0.312V10H31.5223V2.776L28.3023 10H27.4063L24.1723 2.762V10H22.8983V0.312H24.2703L27.8543 8.32L31.4383 0.312H32.7963ZM36.2029 0.242V6.416C36.2029 7.284 36.4129 7.928 36.8329 8.348C37.2622 8.768 37.8549 8.978 38.6109 8.978C39.3576 8.978 39.9409 8.768 40.3609 8.348C40.7902 7.928 41.0049 7.284 41.0049 6.416V0.242H42.2789V6.402C42.2789 7.214 42.1156 7.9 41.7889 8.46C41.4622 9.01067 41.0189 9.42133 40.4589 9.692C39.9082 9.96267 39.2876 10.098 38.5969 10.098C37.9062 10.098 37.2809 9.96267 36.7209 9.692C36.1702 9.42133 35.7316 9.01067 35.4049 8.46C35.0876 7.9 34.9289 7.214 34.9289 6.402V0.242H36.2029ZM52.0762 10H50.8022L45.6782 2.23V10H44.4042V0.228H45.6782L50.8022 7.984V0.228H52.0762V10ZM55.5219 0.242V10H54.2479V0.242H55.5219ZM60.7312 0.242C61.7952 0.242 62.7146 0.442666 63.4892 0.843999C64.2732 1.236 64.8706 1.80067 65.2812 2.538C65.7012 3.27533 65.9112 4.14333 65.9112 5.142C65.9112 6.14067 65.7012 7.00867 65.2812 7.746C64.8706 8.474 64.2732 9.034 63.4892 9.426C62.7146 9.80867 61.7952 10 60.7312 10H57.6932V0.242H60.7312ZM60.7312 8.95C61.9912 8.95 62.9526 8.61867 63.6152 7.956C64.2779 7.284 64.6092 6.346 64.6092 5.142C64.6092 3.92867 64.2732 2.98133 63.6012 2.3C62.9386 1.61867 61.9819 1.278 60.7312 1.278H58.9672V8.95H60.7312ZM73.3597 7.83H69.1037L68.3197 10H66.9757L70.5037 0.298H71.9737L75.4877 10H74.1437L73.3597 7.83ZM72.9957 6.794L71.2317 1.866L69.4677 6.794H72.9957ZM80.0633 0.242C81.1273 0.242 82.0466 0.442666 82.8213 0.843999C83.6053 1.236 84.2026 1.80067 84.6133 2.538C85.0333 3.27533 85.2433 4.14333 85.2433 5.142C85.2433 6.14067 85.0333 7.00867 84.6133 7.746C84.2026 8.474 83.6053 9.034 82.8213 9.426C82.0466 9.80867 81.1273 10 80.0633 10H77.0253V0.242H80.0633ZM80.0633 8.95C81.3233 8.95 82.2846 8.61867 82.9473 7.956C83.6099 7.284 83.9413 6.346 83.9413 5.142C83.9413 3.92867 83.6053 2.98133 82.9333 2.3C82.2706 1.61867 81.3139 1.278 80.0633 1.278H78.2993V8.95H80.0633ZM88.1977 1.278V4.54H91.7537V5.59H88.1977V8.95H92.1737V10H86.9237V0.228H92.1737V1.278H88.1977Z" fill="#858585"/>
</svg>
